<?xml version="1.0" standalone="no"?>
<!DOCTYPE svg PUBLIC "-//W3C//DTD SVG 20010904//EN"
 "http://www.w3.org/TR/2001/REC-SVG-20010904/DTD/svg10.dtd">
<svg version="1.0" xmlns="http://www.w3.org/2000/svg"
 width="3400.000000pt" height="3400.000000pt" viewBox="0 0 3400.000000 3400.000000"
 preserveAspectRatio="xMidYMid meet">
<metadata>
Created by potrace 1.14, written by Peter Selinger 2001-2017
</metadata>
<g transform="translate(0.000000,3400.000000) scale(0.100000,-0.100000)"
fill="#000000" stroke="none">
<path d="M31918 22995 c-3 -2 -76 -11 -173 -21 -47 -4 -110 -12 -145 -18 -14
-3 -52 -7 -85 -11 -33 -3 -94 -10 -136 -16 -41 -5 -95 -11 -120 -14 -60 -6
-138 -16 -160 -20 -10 -2 -44 -6 -76 -9 -83 -9 -154 -17 -183 -21 -14 -2 -50
-6 -80 -10 -30 -3 -86 -10 -125 -15 -38 -5 -95 -12 -126 -15 -31 -3 -65 -7
-75 -9 -11 -2 -48 -7 -84 -10 -36 -4 -75 -8 -85 -10 -11 -2 -49 -7 -85 -11
-36 -3 -76 -8 -90 -10 -14 -2 -53 -7 -88 -10 -35 -4 -72 -8 -82 -10 -10 -2
-47 -6 -82 -10 -35 -3 -74 -8 -88 -10 -64 -9 -109 -15 -160 -20 -30 -3 -73 -8
-95 -11 -41 -6 -90 -12 -160 -18 -22 -3 -53 -7 -70 -9 -16 -3 -52 -8 -80 -11
-27 -3 -72 -9 -100 -12 -27 -3 -61 -7 -75 -9 -14 -2 -47 -6 -75 -9 -119 -14
-217 -25 -260 -31 -71 -9 -204 -25 -256 -30 -31 -3 -66 -7 -78 -10 -12 -2 -52
-7 -89 -11 -70 -7 -98 -10 -147 -17 -16 -3 -61 -8 -98 -12 -37 -3 -76 -8 -86
-10 -10 -2 -44 -6 -76 -9 -32 -4 -72 -8 -89 -11 -61 -8 -122 -15 -166 -20 -25
-3 -67 -8 -95 -11 -27 -4 -66 -8 -85 -10 -19 -2 -51 -6 -70 -8 -19 -3 -55 -8
-80 -11 -25 -3 -61 -8 -80 -10 -34 -4 -118 -14 -170 -20 -69 -8 -139 -16 -170
-20 -19 -2 -60 -7 -90 -10 -30 -4 -71 -8 -90 -11 -19 -2 -73 -9 -120 -14 -89
-11 -142 -17 -200 -25 -19 -3 -57 -7 -85 -10 -27 -3 -66 -7 -85 -10 -73 -9
-146 -18 -175 -21 -16 -2 -50 -6 -75 -9 -25 -3 -58 -8 -75 -9 -68 -7 -152 -17
-185 -22 -19 -3 -53 -7 -75 -9 -22 -3 -60 -7 -85 -10 -25 -3 -65 -8 -90 -10
-25 -3 -56 -7 -70 -9 -14 -3 -50 -8 -80 -11 -64 -7 -121 -14 -170 -20 -19 -3
-60 -7 -90 -10 -30 -3 -66 -8 -80 -10 -23 -3 -57 -7 -180 -21 -25 -3 -81 -10
-125 -16 -44 -5 -91 -11 -105 -13 -54 -5 -156 -17 -172 -20 -9 -2 -43 -6 -75
-10 -32 -3 -76 -8 -98 -11 -22 -2 -62 -6 -90 -9 -27 -3 -61 -8 -75 -10 -28 -5
-106 -15 -160 -20 -61 -6 -134 -15 -160 -20 -14 -3 -56 -7 -95 -10 -38 -3 -77
-8 -85 -10 -8 -2 -44 -7 -80 -11 -93 -9 -121 -12 -160 -18 -67 -9 -177 -23
-254 -30 -26 -3 -65 -8 -85 -11 -20 -2 -94 -12 -166 -20 -71 -8 -143 -17 -160
-19 -16 -2 -57 -7 -90 -11 -33 -3 -71 -8 -85 -10 -14 -2 -52 -6 -84 -10 -33
-3 -73 -8 -90 -10 -17 -2 -51 -7 -76 -10 -25 -3 -58 -7 -75 -9 -31 -4 -123
-15 -185 -22 -40 -4 -202 -24 -240 -29 -14 -2 -54 -7 -90 -10 -36 -4 -72 -8
-80 -10 -8 -2 -46 -6 -85 -10 -38 -4 -78 -9 -89 -11 -10 -2 -44 -6 -75 -9 -31
-3 -72 -8 -91 -10 -19 -3 -57 -7 -85 -11 -27 -3 -63 -8 -80 -10 -16 -3 -52 -7
-80 -9 -27 -3 -66 -7 -85 -10 -19 -2 -53 -7 -75 -9 -22 -3 -58 -7 -80 -10 -22
-3 -67 -8 -100 -11 -33 -4 -67 -8 -75 -10 -8 -2 -44 -6 -80 -10 -36 -3 -78 -8
-93 -11 -15 -3 -47 -7 -70 -9 -23 -2 -62 -6 -87 -9 -25 -3 -63 -8 -85 -10 -22
-3 -60 -8 -85 -11 -62 -9 -96 -13 -160 -20 -30 -3 -71 -8 -91 -10 -20 -2 -58
-7 -85 -9 -27 -3 -66 -8 -86 -11 -71 -10 -103 -14 -163 -20 -33 -4 -71 -8 -85
-11 -14 -2 -50 -6 -80 -9 -59 -6 -101 -11 -165 -19 -22 -3 -60 -8 -85 -11 -25
-3 -63 -8 -85 -11 -40 -5 -60 -7 -165 -19 -30 -3 -66 -7 -80 -10 -14 -2 -50
-6 -80 -10 -30 -3 -89 -10 -130 -15 -41 -5 -97 -11 -125 -14 -27 -3 -61 -8
-75 -10 -14 -2 -54 -7 -90 -11 -36 -3 -78 -8 -95 -11 -37 -5 -340 -41 -415
-49 -30 -3 -66 -8 -80 -10 -38 -5 -119 -15 -170 -20 -25 -3 -56 -7 -70 -10
-14 -2 -54 -7 -90 -11 -36 -3 -78 -7 -95 -9 -16 -2 -52 -7 -80 -10 -27 -3 -67
-8 -87 -11 -90 -12 -107 -14 -168 -20 -36 -3 -67 -7 -70 -9 -3 -2 -41 -6 -85
-10 -44 -4 -82 -9 -85 -10 -3 -2 -39 -6 -80 -10 -41 -4 -82 -8 -90 -10 -9 -2
-43 -6 -75 -10 -33 -3 -76 -8 -95 -11 -40 -5 -94 -12 -165 -19 -27 -3 -68 -8
-90 -12 -22 -3 -51 -7 -65 -8 -14 -1 -53 -6 -87 -9 -34 -4 -71 -9 -84 -11 -12
-2 -49 -7 -83 -10 -33 -2 -70 -7 -81 -9 -11 -2 -49 -7 -85 -11 -36 -4 -74 -9
-84 -11 -11 -2 -49 -6 -85 -9 -37 -3 -75 -7 -86 -9 -24 -4 -126 -17 -175 -22
-19 -2 -51 -6 -70 -9 -19 -3 -57 -7 -85 -10 -27 -3 -66 -7 -85 -10 -19 -2 -60
-7 -90 -10 -30 -4 -66 -8 -80 -10 -14 -2 -50 -7 -80 -10 -30 -3 -66 -8 -80
-10 -14 -2 -54 -7 -90 -10 -36 -4 -73 -9 -83 -11 -16 -3 -57 -7 -167 -19 -51
-5 -136 -16 -160 -20 -14 -2 -54 -7 -90 -10 -36 -3 -76 -8 -90 -10 -14 -3 -47
-7 -75 -10 -27 -2 -59 -7 -70 -9 -12 -2 -52 -7 -90 -11 -39 -3 -83 -8 -100
-10 -48 -7 -197 -26 -240 -30 -63 -7 -138 -16 -165 -20 -14 -2 -50 -6 -80 -10
-30 -3 -71 -8 -90 -10 -19 -3 -60 -7 -90 -10 -30 -3 -66 -8 -80 -10 -14 -2
-47 -7 -74 -9 -27 -3 -83 -10 -125 -16 -42 -5 -103 -12 -136 -15 -33 -3 -67
-8 -75 -10 -8 -2 -44 -7 -80 -11 -36 -3 -76 -8 -90 -9 -73 -8 -138 -16 -160
-20 -14 -2 -50 -7 -80 -10 -30 -3 -71 -8 -90 -10 -19 -3 -57 -7 -85 -10 -27
-3 -60 -7 -72 -9 -12 -3 -54 -8 -94 -11 -40 -4 -81 -9 -92 -11 -10 -2 -62 -8
-116 -14 -53 -6 -108 -12 -121 -15 -14 -2 -52 -7 -85 -10 -110 -12 -124 -14
-250 -29 -22 -3 -83 -11 -135 -17 -52 -6 -102 -13 -111 -14 -9 -2 -52 -6 -95
-10 -43 -4 -82 -9 -85 -11 -5 -3 -47 -7 -169 -19 -19 -2 -48 -6 -65 -8 -16 -3
-55 -8 -85 -11 -30 -4 -66 -8 -80 -10 -14 -3 -56 -7 -95 -11 -38 -3 -97 -10
-130 -15 -33 -5 -89 -12 -125 -15 -36 -4 -74 -9 -85 -11 -10 -2 -49 -6 -85
-10 -36 -3 -74 -8 -85 -10 -11 -2 -42 -6 -70 -9 -54 -5 -141 -16 -165 -20 -8
-1 -46 -6 -85 -9 -38 -4 -77 -9 -85 -11 -8 -2 -44 -6 -80 -10 -36 -3 -76 -7
-90 -10 -22 -3 -50 -7 -180 -21 -19 -2 -51 -6 -70 -9 -19 -2 -55 -7 -80 -10
-25 -3 -99 -12 -165 -20 -66 -8 -147 -17 -180 -20 -33 -4 -71 -8 -85 -10 -27
-4 -90 -12 -155 -20 -51 -5 -208 -24 -257 -30 -94 -12 -126 -16 -163 -21 -22
-2 -56 -7 -75 -9 -19 -3 -60 -7 -90 -10 -55 -5 -98 -10 -157 -20 -18 -2 -61
-7 -96 -10 -35 -3 -72 -7 -84 -9 -20 -4 -79 -11 -168 -21 -27 -3 -61 -7 -75
-9 -14 -3 -50 -7 -80 -11 -30 -3 -71 -8 -90 -10 -19 -2 -57 -7 -85 -10 -27 -3
-84 -10 -125 -15 -41 -6 -95 -12 -120 -15 -67 -7 -115 -12 -214 -25 -49 -6
-109 -13 -133 -15 -24 -3 -56 -7 -71 -9 -15 -2 -56 -8 -92 -11 -36 -4 -72 -9
-80 -10 -8 -1 -44 -6 -80 -10 -36 -3 -76 -8 -90 -10 -14 -2 -47 -6 -75 -10
-27 -3 -66 -8 -85 -10 -19 -2 -57 -7 -85 -11 -27 -3 -61 -7 -75 -9 -14 -2 -54
-6 -90 -9 -36 -4 -72 -8 -80 -11 -8 -2 -46 -6 -85 -10 -38 -3 -83 -8 -100 -11
-16 -3 -48 -7 -70 -9 -22 -2 -78 -8 -125 -14 -47 -7 -101 -14 -120 -16 -19 -2
-58 -7 -86 -10 -28 -4 -68 -8 -90 -10 -21 -2 -59 -6 -84 -9 -53 -7 -172 -22
-250 -32 -30 -4 -68 -8 -85 -10 -16 -1 -50 -5 -75 -8 -25 -3 -65 -8 -90 -11
-25 -3 -61 -7 -80 -10 -19 -3 -55 -7 -80 -10 -25 -2 -58 -6 -75 -9 -16 -2 -59
-7 -95 -11 -36 -4 -72 -9 -80 -10 -9 -2 -46 -6 -82 -9 -37 -4 -75 -8 -85 -10
-20 -4 -117 -16 -173 -22 -19 -2 -55 -6 -80 -9 -25 -3 -67 -8 -95 -11 -27 -3
-61 -7 -75 -9 -14 -2 -50 -6 -80 -10 -30 -4 -66 -8 -80 -10 -14 -2 -52 -7 -85
-10 -33 -3 -69 -7 -80 -9 -25 -5 -130 -17 -260 -30 -33 -4 -70 -9 -81 -11 -12
-3 -48 -7 -80 -11 -32 -3 -60 -7 -63 -9 -5 -2 -7 -8385 -2 -8406 0 -3 43 0 94
7 50 7 119 15 152 19 33 3 71 8 85 10 14 2 50 6 80 10 30 3 89 10 130 15 41 5
100 12 130 15 30 3 66 8 80 10 14 2 45 6 70 9 69 8 141 16 185 22 22 3 60 7
85 10 25 2 59 6 75 9 17 2 57 7 90 11 33 3 69 8 80 10 11 2 49 7 85 10 36 3
76 7 90 9 109 15 166 23 240 30 30 3 87 10 125 15 39 5 93 12 120 15 28 3 66
7 85 10 19 2 58 7 85 10 28 3 66 7 85 10 19 3 58 7 85 10 86 9 139 15 174 21
36 6 98 13 166 19 22 2 40 4 40 5 0 1 14 3 30 4 17 2 55 7 85 11 30 4 66 9 80
10 28 3 139 15 185 21 17 2 55 6 85 9 30 4 62 8 70 10 8 2 44 7 80 11 104 11
247 27 350 40 47 6 74 9 150 18 25 3 104 12 175 21 72 9 148 18 169 20 21 3
55 7 75 9 20 3 61 8 91 11 30 3 66 8 80 10 47 6 146 19 245 30 33 3 71 8 85 9
14 2 50 7 80 10 30 4 66 9 80 11 14 2 52 7 85 10 67 7 137 15 175 20 14 2 50
6 80 10 30 3 89 10 130 15 41 5 99 12 129 15 30 4 61 8 70 10 9 1 45 6 81 10
36 3 76 8 90 10 14 2 54 7 90 10 36 4 74 9 85 11 11 2 44 6 75 9 31 3 65 7 76
9 11 2 53 7 93 11 40 3 82 8 94 11 12 2 42 6 67 8 25 3 61 7 80 10 19 3 62 8
95 12 89 8 125 13 175 19 89 13 200 27 230 30 89 9 164 17 179 20 17 3 98 13
171 20 19 2 53 7 75 10 22 3 63 8 90 11 28 2 61 6 75 9 14 2 52 7 85 10 33 4
76 8 96 11 68 9 104 13 159 19 30 3 66 8 80 10 14 2 52 6 85 10 33 3 71 8 85
10 25 4 176 21 260 31 25 2 59 7 75 9 17 2 53 7 80 10 76 8 136 16 175 22 19
3 49 6 65 8 47 4 147 15 185 20 19 3 55 7 80 10 25 3 61 8 80 11 19 2 51 6 70
8 87 9 156 18 170 21 8 2 49 7 90 10 41 4 89 9 105 11 17 2 50 6 75 9 25 3 52
8 60 10 8 2 51 7 95 11 44 3 82 8 85 9 3 2 39 6 80 10 41 4 82 8 90 10 8 2 44
6 80 10 36 4 72 8 80 10 8 2 49 6 90 10 41 4 82 8 90 10 46 8 114 17 240 30
30 3 68 8 85 11 16 3 52 7 80 9 27 3 84 9 125 14 41 6 100 13 130 16 30 4 66
8 80 10 14 2 50 6 80 10 30 3 71 8 90 10 41 5 105 13 158 19 20 3 60 8 87 11
28 3 68 8 90 10 22 3 56 7 75 10 19 2 60 7 90 10 30 4 66 8 80 10 24 4 77 10
170 20 85 9 143 17 161 20 10 2 49 7 86 10 37 4 75 9 83 10 8 2 47 6 85 10 39
4 77 9 85 10 8 2 44 6 80 10 36 4 73 9 83 11 10 2 48 6 85 10 36 3 73 7 82 9
8 2 44 6 80 10 36 3 76 8 90 10 32 5 128 17 160 20 14 1 48 5 75 9 28 3 73 8
100 11 28 3 70 8 95 11 50 7 70 10 150 19 30 3 66 7 80 10 14 2 54 7 90 10 36
4 73 9 82 10 9 2 48 7 85 10 37 4 76 9 86 11 10 2 46 6 80 9 34 3 76 8 92 11
17 3 48 7 70 9 22 3 60 7 85 10 25 3 65 7 90 10 25 3 62 8 83 10 54 7 115 14
172 21 28 3 57 7 65 9 8 2 49 7 90 10 41 4 82 9 91 10 16 3 72 10 172 21 28 3
63 7 77 9 76 11 111 15 170 21 36 3 73 8 82 9 9 2 43 6 75 10 32 3 69 8 83 10
14 2 50 6 80 10 30 3 71 8 90 10 19 3 56 7 83 10 100 11 143 16 167 20 14 2
50 6 80 10 30 3 71 8 90 10 45 7 102 13 165 19 48 5 103 13 155 22 14 2 54 6
90 9 36 3 76 7 90 10 14 3 50 8 80 10 30 3 73 8 95 11 22 3 58 8 80 10 22 2
56 6 75 9 19 2 60 7 90 11 30 3 66 7 80 9 84 12 111 15 165 20 33 3 75 8 93
11 80 11 101 13 157 19 33 3 74 8 90 10 51 8 98 14 155 20 30 3 71 8 90 10 46
6 102 13 175 20 33 4 67 8 75 10 8 2 44 7 80 10 36 4 76 8 90 10 48 7 263 34
325 40 22 2 40 4 40 5 0 1 14 3 30 4 35 3 131 14 195 23 25 3 56 7 70 8 58 7
142 17 250 30 63 8 137 17 164 20 26 2 65 7 85 9 20 3 59 8 86 11 28 3 59 7
70 9 11 2 54 7 95 11 41 4 82 9 90 10 8 2 40 6 70 9 30 4 71 9 90 11 19 2 58
7 85 10 28 3 86 10 129 16 43 6 100 12 125 14 25 2 57 6 70 9 14 3 50 8 80 11
31 2 72 7 91 9 19 3 55 7 80 10 25 3 65 8 90 11 25 3 68 8 95 11 28 3 79 9
115 14 36 5 90 12 120 15 30 3 89 10 130 15 41 5 95 12 120 14 25 3 65 8 90
11 25 4 61 8 80 10 19 2 53 6 75 9 22 2 69 8 105 11 36 4 74 9 85 11 19 4 33
6 155 19 30 3 66 7 80 10 14 2 54 7 90 11 36 3 79 8 95 10 64 10 189 25 248
29 26 2 55 6 65 9 9 3 50 8 90 11 41 4 83 8 94 10 11 3 46 7 77 10 31 3 67 8
81 10 14 2 50 7 80 10 30 4 66 8 80 10 14 2 53 7 88 10 35 4 73 8 85 11 12 2
47 6 77 10 88 9 133 14 165 18 83 10 191 23 265 31 30 3 62 8 70 10 8 2 46 6
83 10 37 3 76 8 85 10 9 1 49 6 87 10 122 13 129 13 160 19 17 2 53 7 80 10
58 7 127 15 170 21 17 2 53 6 80 9 28 3 91 11 140 17 50 6 101 12 115 14 92 9
148 16 170 20 14 2 52 7 85 10 33 3 89 10 125 15 36 5 97 12 135 16 39 3 79 8
89 10 11 2 42 6 70 9 28 3 85 10 126 15 41 5 98 12 125 15 28 3 59 7 70 9 11
2 54 7 95 11 41 4 77 8 80 10 3 2 39 6 80 10 41 4 77 8 80 10 3 1 41 6 84 10
43 4 86 8 95 10 9 1 43 6 76 9 33 4 71 9 85 11 28 4 87 11 175 20 33 4 72 9
86 11 14 2 51 6 81 9 30 3 63 7 74 9 10 2 48 7 84 11 36 4 79 9 95 11 17 2 55
6 85 9 30 4 66 8 80 11 14 2 48 6 75 9 28 3 67 7 88 10 38 5 68 9 167 20 30 4
67 9 83 11 15 2 51 6 80 9 28 2 84 8 124 14 71 11 144 19 215 26 20 1 54 6 75
9 21 3 61 8 88 11 56 6 128 15 165 20 14 2 50 7 80 10 100 11 135 15 170 20
19 2 58 7 85 10 28 3 86 10 130 16 130 16 147 18 205 24 30 3 66 8 80 10 14 2
53 7 87 10 34 3 70 7 80 9 10 2 52 7 93 11 41 4 77 8 80 10 3 1 36 6 73 10 37
3 77 8 88 10 11 2 50 7 87 11 36 3 73 7 82 9 8 1 44 6 80 10 78 8 121 15 129
19 5 3 6 8365 2 8398 -1 6 -66 9 -73 3z m-1139 -1364 c14 -9 34 -29 44 -44 20
-26 20 -52 22 -1724 1 -934 5 -1711 9 -1726 34 -141 124 -242 220 -249 37 -2
38 -4 38 -38 0 -35 -2 -40 -15 -40 -23 0 -92 -42 -121 -74 -60 -64 -100 -142
-122 -241 -4 -16 -8 -512 -9 -1101 -2 -1180 3 -1089 -64 -1139 -18 -12 -53
-26 -79 -30 -26 -3 -58 -8 -72 -10 -14 -2 -50 -7 -80 -10 -30 -3 -71 -7 -90
-10 -19 -3 -53 -7 -75 -10 -125 -13 -162 -18 -180 -21 -11 -2 -45 -7 -75 -10
-30 -3 -71 -7 -90 -10 -19 -2 -59 -7 -89 -10 -30 -3 -64 -8 -75 -10 -12 -2
-48 -7 -81 -9 -33 -3 -87 -9 -120 -14 -71 -10 -113 0 -146 35 l-24 26 -2 941
c-1 518 -4 1003 -6 1077 -5 130 -26 247 -48 260 -5 4 -18 22 -28 41 -23 44
-87 87 -151 102 -48 11 -51 14 -48 41 2 25 12 34 58 58 30 15 69 43 86 61 62
65 117 189 128 287 3 25 6 797 6 1716 l1 1672 22 33 c30 44 90 75 162 83 33 4
96 11 140 17 44 5 96 12 115 14 148 18 202 25 250 30 30 3 69 7 85 10 41 6
119 15 180 21 28 3 61 7 75 10 14 2 52 7 85 10 33 3 61 7 63 9 8 8 80 -9 101
-24z m-4632 -561 c17 -14 37 -35 44 -48 10 -18 13 -365 14 -1720 2 -1591 3
-1700 19 -1752 42 -131 99 -189 211 -215 48 -11 50 -13 49 -46 0 -21 -5 -33
-13 -31 -6 1 -26 -5 -44 -14 -113 -58 -194 -181 -215 -330 -3 -27 -6 -210 -7
-406 0 -331 1 -360 19 -392 29 -54 128 -82 221 -62 11 2 51 7 88 11 37 3 78 8
90 11 12 2 50 6 85 10 35 3 72 7 83 9 12 2 64 9 118 15 53 6 108 12 121 15 22
3 77 10 170 20 148 16 230 26 250 30 23 4 98 12 180 20 19 2 49 6 65 8 17 3
55 8 85 12 30 3 71 8 90 11 19 2 58 6 85 9 28 2 59 6 70 9 11 2 52 7 90 10 39
4 77 9 85 11 8 2 42 6 75 10 90 9 225 25 270 31 113 17 177 -7 194 -74 5 -20
8 -288 7 -597 -1 -528 -2 -562 -20 -591 -33 -54 -80 -70 -271 -89 -33 -3 -67
-8 -75 -10 -8 -2 -46 -7 -85 -10 -38 -3 -81 -8 -95 -10 -32 -6 -90 -13 -160
-20 -30 -3 -68 -8 -85 -10 -16 -2 -46 -6 -65 -9 -19 -3 -62 -8 -95 -11 -33 -3
-94 -10 -136 -16 -41 -5 -95 -12 -119 -14 -24 -2 -78 -9 -119 -14 -42 -6 -103
-13 -136 -17 -33 -3 -68 -8 -78 -10 -16 -3 -58 -8 -167 -19 -23 -2 -90 -10
-170 -20 -19 -3 -75 -9 -125 -15 -49 -6 -101 -13 -115 -15 -39 -6 -121 -15
-175 -20 -28 -3 -63 -7 -80 -9 -16 -3 -74 -10 -129 -16 -54 -7 -106 -13 -115
-15 -9 -1 -46 -6 -83 -9 -37 -4 -77 -9 -90 -11 -13 -3 -48 -7 -78 -10 -30 -2
-71 -7 -90 -10 -19 -2 -62 -7 -95 -10 -33 -3 -67 -8 -75 -10 -8 -2 -43 -7 -77
-10 -34 -3 -70 -7 -80 -9 -10 -2 -47 -7 -83 -11 -36 -4 -81 -9 -100 -12 -19
-2 -51 -6 -70 -8 -19 -2 -60 -7 -90 -11 -153 -20 -228 -4 -248 55 -7 18 -10
392 -10 1060 0 567 -3 1046 -7 1064 -16 88 -31 127 -69 184 -32 49 -52 68 -93
88 -28 14 -66 25 -82 25 -29 0 -31 3 -31 35 0 30 5 37 28 45 85 31 143 87 194
185 33 64 43 98 54 190 2 17 4 781 5 1699 0 1025 4 1679 10 1694 11 29 28 44
83 73 44 24 47 24 141 33 39 4 81 9 95 11 14 2 48 7 75 10 85 9 149 16 175 20
14 2 52 7 85 10 33 4 71 8 85 10 14 3 50 7 80 10 30 3 64 7 75 9 11 2 49 7 85
10 36 4 88 10 115 15 90 14 148 8 182 -19z m-3252 -383 c33 -3 71 -8 85 -11
14 -3 41 -8 60 -10 19 -3 67 -15 105 -27 39 -11 85 -25 104 -31 125 -37 295
-141 415 -254 122 -114 239 -362 262 -554 3 -25 10 -63 15 -85 4 -22 7 -575 6
-1230 -3 -1128 -4 -1193 -21 -1245 -10 -30 -28 -71 -40 -92 -28 -50 -104 -141
-140 -166 l-28 -20 43 -23 c80 -40 126 -108 166 -244 16 -55 18 -144 21 -1117
3 -1193 8 -1109 -74 -1154 -40 -22 -64 -28 -174 -39 -30 -3 -66 -8 -80 -10
-14 -2 -50 -7 -80 -10 -30 -3 -66 -8 -80 -10 -14 -2 -50 -6 -80 -9 -30 -4 -77
-9 -105 -12 -27 -3 -63 -7 -80 -9 -16 -2 -52 -7 -80 -10 -84 -11 -108 -14
-165 -20 -30 -4 -65 -8 -78 -10 -13 -2 -53 -6 -90 -10 -80 -6 -126 12 -155 63
-19 33 -20 60 -20 868 1 804 0 835 -19 873 -21 43 -51 59 -113 63 -35 2 -145
-8 -199 -18 -10 -2 -44 -6 -75 -9 -31 -4 -74 -9 -96 -12 -64 -8 -86 -10 -155
-17 -36 -4 -76 -9 -90 -11 -14 -2 -47 -6 -75 -10 -27 -3 -66 -7 -85 -10 -19
-2 -57 -7 -85 -10 -113 -13 -131 -16 -163 -33 -17 -9 -35 -26 -39 -37 -4 -11
-7 -414 -8 -895 -1 -875 -1 -875 -22 -916 -26 -49 -72 -69 -178 -79 -38 -3
-81 -8 -95 -10 -24 -4 -62 -9 -160 -21 -25 -3 -79 -9 -120 -14 -41 -6 -100
-12 -131 -15 -31 -3 -64 -7 -75 -9 -10 -2 -48 -7 -84 -11 -36 -3 -76 -8 -90
-10 -92 -13 -195 -25 -255 -29 -50 -4 -100 16 -117 46 -10 18 -13 249 -13
1068 -1 575 -5 1064 -9 1087 -4 24 -7 44 -6 45 1 2 -6 23 -16 48 -27 69 -80
136 -130 165 -39 23 -59 29 -111 34 -14 1 -17 39 -5 57 4 6 28 21 55 33 93 45
181 169 208 296 10 47 13 420 14 1755 0 1622 1 1696 19 1722 24 36 107 75 176
83 51 5 76 8 170 20 19 2 58 7 85 10 70 8 136 16 163 20 13 2 53 7 90 10 37 3
78 8 92 11 28 5 80 11 154 18 52 6 109 13 169 22 21 3 57 8 80 9 38 3 110 12
167 20 14 2 52 7 85 10 33 4 71 8 85 10 14 2 88 10 165 19 77 9 172 21 210 26
39 5 95 12 125 15 30 3 66 8 80 10 14 2 50 6 80 10 51 5 157 18 255 30 22 3
69 8 105 11 36 4 66 7 67 8 3 2 151 -3 208 -7z m-4835 -591 c41 -4 83 -9 92
-12 9 -3 25 -6 35 -8 73 -15 177 -48 250 -81 29 -14 56 -25 59 -25 18 0 210
-137 257 -185 60 -59 157 -191 157 -213 0 -7 4 -12 8 -12 4 0 14 -17 21 -37 8
-21 21 -56 31 -78 19 -46 35 -94 46 -145 4 -19 8 -37 9 -40 5 -21 18 -101 22
-130 2 -19 5 -552 7 -1185 1 -632 6 -1170 10 -1195 11 -62 27 -109 52 -150 46
-74 85 -103 165 -119 54 -11 55 -12 55 -46 0 -28 -4 -35 -21 -35 -51 -1 -140
-61 -177 -121 -19 -29 -56 -139 -63 -184 -3 -16 -8 -43 -12 -60 -3 -16 -7
-257 -9 -535 -2 -526 -4 -577 -30 -700 -9 -41 -17 -79 -18 -85 -20 -95 -130
-321 -210 -433 -163 -226 -351 -368 -666 -504 -129 -56 -325 -103 -515 -123
-33 -4 -71 -8 -85 -11 -14 -2 -47 -6 -75 -9 -57 -6 -114 -13 -165 -21 -19 -2
-57 -7 -85 -9 -27 -3 -63 -6 -80 -9 -16 -2 -59 -7 -95 -11 -36 -4 -73 -9 -82
-10 -9 -2 -43 -6 -75 -10 -32 -3 -69 -8 -83 -10 -29 -4 -130 -16 -176 -21 -18
-1 -54 -6 -80 -10 -68 -10 -319 -10 -377 -1 -251 40 -383 86 -534 184 -111 72
-228 190 -283 283 -65 112 -91 176 -122 295 -24 97 -24 97 -33 165 -13 107
-14 140 -15 625 -2 437 -4 498 -20 561 -27 106 -83 178 -165 215 -22 10 -52
19 -67 19 -25 0 -28 4 -28 34 0 30 4 35 43 50 100 38 204 180 223 303 3 21 7
49 9 63 3 14 5 540 6 1170 1 1174 1 1207 39 1375 15 65 50 166 62 183 6 6 7
12 3 12 -9 0 87 180 134 248 71 105 168 208 276 293 222 176 570 323 835 354
25 3 61 7 80 10 60 8 123 16 170 21 52 5 100 11 150 18 19 3 62 8 95 11 33 3
71 7 85 10 14 2 45 6 70 9 25 3 101 12 170 20 69 9 145 18 170 20 122 14 214
26 217 29 5 5 269 0 333 -7z m-3912 -451 c15 -8 38 -26 51 -40 l24 -26 2
-1702 c1 -1328 4 -1712 13 -1747 20 -72 54 -131 100 -177 35 -34 55 -45 102
-55 55 -11 58 -13 56 -40 -2 -22 -12 -33 -53 -55 -105 -58 -150 -116 -195
-251 -21 -67 -21 -67 -23 -1122 -1 -580 -5 -1071 -9 -1091 -12 -64 -74 -102
-183 -114 -34 -3 -70 -7 -80 -9 -18 -4 -91 -12 -168 -21 -54 -5 -299 -35 -415
-50 -19 -2 -57 -7 -85 -10 -27 -3 -66 -8 -85 -10 -82 -11 -168 -19 -208 -19
-34 0 -48 5 -75 32 l-32 32 -2 1026 c0 564 -4 1044 -7 1067 -3 23 -8 59 -11
79 -7 52 -20 82 -60 142 -38 58 -112 106 -168 110 -28 2 -32 6 -35 34 -3 28 1
33 50 56 62 30 96 59 135 118 52 78 77 148 88 248 4 35 7 807 7 1715 0 1330 3
1656 13 1682 8 19 30 41 58 57 49 29 60 32 146 41 31 4 67 8 81 10 14 2 52 7
85 10 33 3 71 8 85 10 38 6 200 26 250 31 25 2 59 6 75 9 17 2 53 7 80 10 28
3 66 7 85 10 19 2 67 7 105 11 39 3 72 8 74 10 11 10 105 2 129 -11z m-3208
-400 c98 -12 197 -35 297 -69 90 -30 211 -82 223 -96 3 -3 30 -21 61 -41 144
-95 238 -199 314 -351 37 -72 90 -237 100 -303 3 -23 8 -52 11 -65 2 -14 7
-54 9 -90 7 -95 6 -2244 -1 -2313 -3 -32 -12 -81 -20 -110 -8 -29 -16 -56 -17
-62 -7 -26 -83 -128 -127 -169 -28 -26 -50 -50 -50 -54 0 -5 15 -13 33 -20 76
-28 155 -160 173 -289 3 -26 8 -57 10 -68 2 -11 4 -479 4 -1040 1 -1146 5
-1074 -72 -1119 -40 -23 -70 -29 -188 -41 -79 -8 -144 -16 -170 -20 -14 -3
-50 -7 -80 -10 -50 -5 -110 -12 -255 -30 -89 -11 -109 -14 -170 -20 -33 -3
-67 -7 -75 -10 -15 -4 -129 -16 -185 -20 -17 -1 -49 6 -71 15 -79 34 -75 -19
-77 932 l-2 843 -23 32 c-32 45 -106 59 -211 42 -57 -10 -127 -18 -276 -34
-22 -2 -56 -6 -75 -9 -47 -7 -162 -20 -265 -31 -27 -3 -61 -8 -75 -10 -14 -2
-52 -7 -85 -10 -119 -12 -136 -18 -169 -54 -18 -20 -19 -54 -21 -903 -1 -633
-4 -891 -12 -910 -28 -64 -85 -84 -293 -103 -25 -3 -63 -7 -85 -9 -22 -3 -132
-17 -245 -31 -113 -14 -225 -28 -250 -31 -25 -3 -58 -7 -75 -9 -79 -8 -162
-18 -180 -21 -45 -9 -115 -6 -142 5 -61 25 -57 -41 -58 1116 -1 840 -4 1071
-14 1115 -13 54 -54 135 -89 176 -30 36 -108 71 -162 73 -21 1 -20 62 0 71 92
43 107 54 159 115 33 39 89 162 97 215 4 25 8 806 9 1735 1 1904 -7 1729 82
1777 46 25 62 29 183 43 30 4 66 8 80 10 14 2 50 6 80 10 30 3 71 8 90 10 64
9 114 14 170 20 30 3 66 7 80 10 14 2 50 7 80 10 30 3 71 7 90 10 19 2 54 7
78 10 99 12 120 15 172 20 30 3 66 8 80 10 26 4 92 12 175 20 28 3 61 7 75 10
14 2 54 7 90 11 36 3 73 8 82 9 9 2 45 6 80 10 35 3 74 7 88 10 14 2 50 7 80
10 30 4 66 8 80 10 14 2 54 7 90 10 36 4 73 9 82 10 9 2 45 6 80 10 35 3 97
11 138 16 41 6 107 13 145 16 39 3 71 7 73 8 5 4 188 -3 242 -10z m-4665 -579
c127 -24 130 -25 228 -57 132 -44 218 -89 326 -170 102 -77 132 -106 191 -184
40 -54 130 -231 130 -256 0 -8 4 -19 8 -25 5 -5 14 -31 20 -59 46 -196 47
-240 46 -1358 -1 -956 -4 -1128 -19 -1222 -19 -112 -49 -223 -80 -290 -7 -16
-20 -46 -29 -65 -75 -171 -226 -360 -386 -484 -60 -47 -155 -106 -239 -150
-30 -15 -62 -32 -70 -36 -115 -61 -384 -137 -546 -155 -27 -3 -61 -7 -75 -10
-14 -2 -54 -7 -90 -11 -113 -11 -117 -12 -240 -29 -14 -2 -59 -7 -100 -10 -41
-4 -84 -9 -95 -11 -11 -2 -39 -6 -62 -9 -83 -10 -129 -15 -178 -20 -27 -3 -61
-8 -75 -10 -14 -2 -56 -7 -95 -11 -66 -5 -142 -33 -156 -56 -4 -6 -7 -407 -7
-892 -1 -905 -1 -922 -40 -953 -48 -38 -66 -43 -202 -58 -30 -4 -68 -8 -85
-10 -97 -12 -124 -16 -162 -20 -89 -10 -139 -16 -168 -20 -16 -2 -50 -6 -75
-9 -50 -6 -119 -15 -165 -21 -16 -2 -57 -6 -90 -10 -33 -3 -72 -8 -87 -11 -14
-3 -59 -7 -100 -9 -84 -4 -135 14 -155 56 -10 20 -13 270 -16 1080 -2 580 -6
1065 -8 1079 -25 144 -135 269 -237 270 -32 0 -33 1 -30 37 3 33 7 38 45 50
53 18 131 96 172 173 63 117 60 41 61 1884 0 1887 -7 1723 78 1769 50 27 76
34 165 43 28 2 65 6 82 9 16 2 62 6 100 10 39 4 79 9 90 11 11 3 43 7 70 9 28
3 66 7 85 10 19 3 55 7 80 10 25 3 56 7 69 10 13 2 55 7 93 10 38 4 78 8 89
10 18 4 74 10 169 20 14 1 48 5 75 9 93 13 120 17 165 21 96 10 134 15 169 20
46 6 282 34 341 40 25 3 61 7 80 10 82 11 118 15 160 19 47 4 125 14 175 21
17 2 57 7 90 11 33 4 85 10 115 14 87 11 307 3 395 -14z"/>
<path d="M22429 19316 c-2 -2 -35 -7 -74 -10 -38 -4 -81 -9 -95 -11 -45 -7
-124 -16 -170 -21 -25 -2 -61 -6 -80 -9 -19 -2 -75 -9 -125 -15 -49 -6 -103
-13 -120 -15 -16 -2 -57 -7 -90 -11 -33 -4 -71 -8 -85 -10 -14 -1 -50 -6 -80
-9 -68 -8 -96 -25 -101 -62 -3 -15 -4 -414 -4 -885 1 -820 1 -857 19 -877 10
-11 22 -19 26 -16 4 2 33 7 66 10 71 6 168 18 269 31 28 4 61 8 75 9 30 3 132
15 175 21 17 2 55 6 85 9 30 3 65 8 78 11 12 2 48 7 80 10 202 17 278 48 312
127 17 39 18 90 18 829 -1 781 -1 787 -22 824 -15 26 -33 41 -61 51 -45 16
-90 24 -96 19z"/>
<path d="M17486 18723 c-1 -1 -29 -5 -62 -8 -32 -3 -70 -8 -84 -10 -14 -3 -54
-7 -90 -11 -36 -3 -73 -8 -84 -10 -10 -2 -44 -6 -75 -9 -96 -11 -125 -14 -161
-19 -39 -6 -100 -13 -175 -21 -124 -14 -190 -49 -223 -117 l-21 -43 0 -1738
c1 -1419 3 -1745 14 -1770 21 -51 71 -82 130 -81 49 1 156 10 205 18 30 5 96
13 170 21 30 3 73 8 95 11 22 3 56 7 75 9 19 2 55 6 80 9 102 14 117 15 173
21 67 6 160 36 197 63 14 10 34 36 44 57 19 39 20 76 20 1775 0 954 -3 1747
-7 1761 -10 41 -41 68 -96 85 -43 12 -115 17 -125 7z"/>
<path d="M10370 17869 c-25 -3 -76 -10 -113 -13 -37 -4 -76 -9 -85 -11 -20 -3
-143 -17 -192 -21 -19 -1 -35 -3 -35 -4 0 -3 -49 -9 -195 -25 -19 -2 -53 -6
-75 -9 -22 -3 -67 -8 -100 -11 -91 -10 -133 -23 -146 -48 -18 -33 -19 -1728
-1 -1770 12 -29 12 -29 75 -23 34 4 81 9 103 11 23 2 54 6 70 9 15 3 57 8 93
11 36 3 77 8 91 10 14 3 52 7 85 11 33 3 67 8 75 9 8 2 44 6 80 10 36 3 76 8
90 10 14 2 69 9 124 15 196 23 252 47 286 123 17 37 18 93 19 827 0 721 -1
790 -17 821 -30 60 -117 86 -232 68z"/>
<path d="M5648 17305 c-2 -2 -30 -7 -63 -10 -33 -4 -71 -8 -85 -10 -33 -4
-126 -15 -170 -20 -19 -3 -75 -9 -125 -15 -89 -11 -108 -13 -195 -25 -25 -3
-63 -8 -85 -9 -45 -4 -129 -15 -160 -21 -11 -2 -26 -4 -32 -4 -7 -1 -22 -10
-32 -20 -19 -19 -19 -46 -20 -893 0 -989 -5 -922 77 -912 26 4 54 6 62 6 8 0
47 4 87 10 40 5 87 11 105 13 30 3 70 8 168 20 19 3 62 8 95 11 33 3 69 8 80
10 10 2 49 6 85 9 36 4 72 8 80 10 8 2 44 7 80 10 183 18 258 59 277 153 3 15
6 375 7 799 1 872 4 838 -71 870 -34 14 -155 28 -165 18z"/>
</g>
</svg>
